<?xml version="1.0" encoding="UTF-8" standalone="no"?>
<svg
   xmlns:dc="http://purl.org/dc/elements/1.1/"
   xmlns:cc="http://creativecommons.org/ns#"
   xmlns:rdf="http://www.w3.org/1999/02/22-rdf-syntax-ns#"
   xmlns:svg="http://www.w3.org/2000/svg"
   xmlns="http://www.w3.org/2000/svg"
   xmlns:sodipodi="http://sodipodi.sourceforge.net/DTD/sodipodi-0.dtd"
   xmlns:inkscape="http://www.inkscape.org/namespaces/inkscape"
   version="1.0"
   width="410"
   height="512"
   viewBox="0 0 307.49999 383.99999"
   preserveAspectRatio="xMidYMid meet"
   id="svg6"
   sodipodi:docname="gab-g.svg"
   inkscape:version="0.92.2 5c3e80d, 2017-08-06"
   inkscape:label="gab-g">
  <metadata
     id="metadata12">
    <rdf:RDF>
      <cc:Work
         rdf:about="">
        <dc:format>image/svg+xml</dc:format>
        <dc:type
           rdf:resource="http://purl.org/dc/dcmitype/StillImage" />
        <dc:title />
      </cc:Work>
    </rdf:RDF>
  </metadata>
  <defs
     id="defs10" />
  <sodipodi:namedview
     pagecolor="#ffffff"
     bordercolor="#666666"
     borderopacity="1"
     objecttolerance="10"
     gridtolerance="10"
     guidetolerance="10"
     inkscape:pageopacity="0"
     inkscape:pageshadow="2"
     inkscape:window-width="1920"
     inkscape:window-height="1044"
     id="namedview8"
     showgrid="false"
     units="px"
     inkscape:zoom="0.48889805"
     inkscape:cx="-326.23873"
     inkscape:cy="244.03409"
     inkscape:window-x="1366"
     inkscape:window-y="0"
     inkscape:window-maximized="1"
     inkscape:current-layer="svg6" />
  <path
     style="stroke:none;stroke-width:0.04420759"
     inkscape:connector-curvature="0"
     id="path2"
     d="M 123.00284,0.55216004 C 106.77865,2.7183319 89.714525,8.7305642 76.319625,17.041591 66.15188,23.363276 52.580149,35.697194 45.064859,45.378656 30.874223,63.769014 21.369591,86.491715 18.186644,109.47966 c -0.972567,7.11742 -1.326227,21.97117 -0.707321,28.5139 1.989342,20.51232 7.382668,38.81426 16.047355,54.37533 6.719554,12.11288 12.643371,19.89342 21.882757,29.00018 10.742445,10.52141 19.583963,16.97572 31.077936,22.6785 31.520009,15.60528 68.344939,16.09156 97.654569,1.37043 8.44365,-4.24393 14.50009,-8.62048 22.54587,-16.35681 l 4.15551,-3.97868 -0.30945,9.54884 c -0.53049,17.77145 -2.12197,26.87821 -6.54272,37.48804 -5.34912,12.8644 -13.04124,22.23641 -24.00473,29.30963 -6.36589,4.1113 -10.96348,6.01223 -19.93762,8.26682 -7.82474,1.90092 -10.4772,2.25458 -17.94828,2.29879 -10.74245,0.0442 -19.58396,-1.41464 -30.41482,-5.12808 -8.75311,-3.00611 -22.103798,-9.59305 -28.381275,-14.0138 l -1.193605,-0.79574 -2.431418,4.50917 c -1.326228,2.51984 -8.576272,16.09157 -16.091563,30.19379 l -13.660145,25.6404 2.917701,2.16617 c 20.556529,15.20741 46.152724,24.93308 75.860225,28.77914 8.48786,1.10519 33.11148,0.75153 42.21825,-0.6189 22.05959,-3.27137 40.67098,-9.41622 56.14364,-18.6114 14.94216,-8.79731 28.82335,-22.19221 38.10694,-36.6923 13.21807,-20.68915 20.68915,-43.76551 24.09314,-74.71083 0.66311,-6.27747 0.75153,-17.19675 0.88415,-125.90321 L 290.32857,7.8022048 h -40.27312 -40.2289 V 19.384593 30.922774 L 204.8753,26.104147 C 199.39356,20.755029 196.47585,18.456234 190.77308,14.742796 180.20746,7.9348276 167.87354,3.469861 152.79876,0.90582076 146.78652,-0.11095381 129.36873,-0.33199176 123.00284,0.55216004 Z M 162.30339,72.787362 c 3.80185,0.707322 11.84763,3.403985 15.47265,5.216496 7.82475,3.890268 16.13577,10.875067 20.99861,17.638828 9.19518,12.820204 12.51075,29.000184 9.01835,43.809724 -5.30491,22.54587 -23.51844,39.91945 -45.71065,43.63289 -5.34912,0.92836 -15.07479,0.70732 -20.02604,-0.44208 -7.95736,-1.7683 -17.10834,-6.32168 -24.00472,-11.89184 -12.95282,-10.43299 -20.468114,-25.94985 -20.556529,-42.48349 -0.04421,-12.2455 4.597589,-24.84467 13.262279,-35.719735 7.64791,-9.637255 21.97117,-17.948282 34.43771,-19.981831 4.24393,-0.707321 12.64337,-0.574699 17.10834,0.221038 z"
     inkscape:label="gab-g" />
</svg>
