<?xml version="1.0" encoding="UTF-8" standalone="no"?>
<svg
   xmlns:dc="http://purl.org/dc/elements/1.1/"
   xmlns:cc="http://creativecommons.org/ns#"
   xmlns:rdf="http://www.w3.org/1999/02/22-rdf-syntax-ns#"
   xmlns:svg="http://www.w3.org/2000/svg"
   xmlns="http://www.w3.org/2000/svg"
   xmlns:sodipodi="http://sodipodi.sourceforge.net/DTD/sodipodi-0.dtd"
   xmlns:inkscape="http://www.inkscape.org/namespaces/inkscape"
   version="1.0"
   width="448"
   height="512"
   viewBox="0 0 335.99999 383.99999"
   preserveAspectRatio="xMidYMid meet"
   id="svg6"
   sodipodi:docname="parler-square.svg"
   inkscape:version="0.92.2 5c3e80d, 2017-08-06"
   inkscape:label="parler-square">
  <metadata
     id="metadata12">
    <rdf:RDF>
      <cc:Work
         rdf:about="">
        <dc:format>image/svg+xml</dc:format>
        <dc:type
           rdf:resource="http://purl.org/dc/dcmitype/StillImage" />
        <dc:title />
      </cc:Work>
    </rdf:RDF>
  </metadata>
  <defs
     id="defs10" />
  <sodipodi:namedview
     pagecolor="#ffffff"
     bordercolor="#666666"
     borderopacity="1"
     objecttolerance="10"
     gridtolerance="10"
     guidetolerance="10"
     inkscape:pageopacity="0"
     inkscape:pageshadow="2"
     inkscape:window-width="1920"
     inkscape:window-height="1044"
     id="namedview8"
     showgrid="false"
     units="px"
     inkscape:zoom="0.97779608"
     inkscape:cx="42.512507"
     inkscape:cy="330.82127"
     inkscape:window-x="1366"
     inkscape:window-y="0"
     inkscape:window-maximized="1"
     inkscape:current-layer="svg6"
     showguides="true"
     inkscape:guide-bbox="true" />
  <path
     style="stroke-width:1"
     d="M 48 32 A 48.000001 48.000001 0 0 0 0 80 L 0 432 A 48.000001 48.000001 0 0 0 48 480 L 98.167969 480 L 185.25 480 L 262.75 480 L 351.27539 480 L 400 480 A 48.000001 48.000001 0 0 0 448 432 L 448 80 A 48.000001 48.000001 0 0 0 400 32 L 351.27539 32 L 98.167969 32 L 48 32 z M 224.92578 110.13867 C 251.09038 109.94864 277.21561 117.90743 295.92188 134.07031 C 303.96028 140.81218 310.37786 148.46247 314.98047 156.69531 C 260.78617 173.35558 238.03263 231.82714 238.81055 285.69727 C 238.42157 315.12823 242.63486 349.03301 251.45117 387.47461 C 253.13664 394.8647 247.49672 401.86523 239.91211 401.86523 L 211.19336 401.86523 C 203.60876 401.86523 197.97078 394.8647 199.65625 387.47461 C 208.47256 349.03301 212.68581 315.06339 212.29688 285.69727 C 213.07476 231.76232 190.32127 173.35558 136.12695 156.69531 C 153.14169 125.96388 189.07059 110.39908 224.92578 110.13867 z M 93.683594 180 C 98.452715 180.06723 103.90759 180.48539 110.13086 181.32812 C 188.63482 190.85753 191.48643 280.18697 179.23438 344.16992 C 178.00269 351.1063 176.64214 358.30325 175.02148 365.69336 C 174.76219 365.56349 66.828032 205.24919 66.503906 205.05469 C 60.54804 196.2627 60.299742 179.52938 93.683594 180 z M 357.35938 180 C 390.74323 179.52938 390.49492 196.2627 384.53906 205.05469 C 384.21493 205.31402 276.34368 365.62763 276.01953 365.69336 C 274.39892 358.30325 273.03833 351.1063 271.80664 344.16992 C 259.55457 280.18697 262.40621 190.85753 340.91016 181.32812 C 347.13343 180.48539 352.59025 180.06723 357.35938 180 z "
     id="path2-3-7"
     transform="scale(0.74999998)"
     inkscape:label="parler-square" />
</svg>
