<?xml version="1.0" encoding="UTF-8" standalone="no"?>
<svg
   xmlns:dc="http://purl.org/dc/elements/1.1/"
   xmlns:cc="http://creativecommons.org/ns#"
   xmlns:rdf="http://www.w3.org/1999/02/22-rdf-syntax-ns#"
   xmlns:svg="http://www.w3.org/2000/svg"
   xmlns="http://www.w3.org/2000/svg"
   xmlns:sodipodi="http://sodipodi.sourceforge.net/DTD/sodipodi-0.dtd"
   xmlns:inkscape="http://www.inkscape.org/namespaces/inkscape"
   version="1.0"
   width="448"
   height="512"
   viewBox="0 0 335.99999 383.99999"
   preserveAspectRatio="xMidYMid meet"
   id="svg6"
   sodipodi:docname="gab-square.svg"
   inkscape:version="0.92.2 5c3e80d, 2017-08-06"
   inkscape:label="gab-square">
  <metadata
     id="metadata12">
    <rdf:RDF>
      <cc:Work
         rdf:about="">
        <dc:format>image/svg+xml</dc:format>
        <dc:type
           rdf:resource="http://purl.org/dc/dcmitype/StillImage" />
        <dc:title />
      </cc:Work>
    </rdf:RDF>
  </metadata>
  <defs
     id="defs10" />
  <sodipodi:namedview
     pagecolor="#ffffff"
     bordercolor="#666666"
     borderopacity="1"
     objecttolerance="10"
     gridtolerance="10"
     guidetolerance="10"
     inkscape:pageopacity="0"
     inkscape:pageshadow="2"
     inkscape:window-width="1920"
     inkscape:window-height="1044"
     id="namedview8"
     showgrid="false"
     units="px"
     inkscape:zoom="0.12222451"
     inkscape:cx="1588.2388"
     inkscape:cy="-813.51787"
     inkscape:window-x="1366"
     inkscape:window-y="0"
     inkscape:window-maximized="1"
     inkscape:current-layer="svg6" />
  <path
     style="stroke-width:1"
     d="M 48 32 A 48 48 0 0 0 0 80 L 0 432 A 48 48 0 0 0 48 480 L 98.167969 480 L 185.25 480 L 262.75 480 L 351.27539 480 L 400 480 A 48 48 0 0 0 448 432 L 448 80 A 48 48 0 0 0 400 32 L 351.27539 32 L 98.167969 32 L 48 32 z M 204.30859 103.94727 C 211.34547 103.88681 219.38841 104.20578 223.06836 104.82812 C 237.83143 107.33918 249.91067 111.71173 260.25781 118.37891 C 265.84267 122.01557 268.69997 124.26541 274.06836 129.50391 L 278.91797 134.22461 L 278.91797 122.92383 L 278.91797 111.58203 L 318.31445 111.58203 L 357.75391 111.58203 L 357.58203 228.12695 C 357.45215 334.58554 357.36424 345.28007 356.71484 351.42773 C 353.38126 381.73316 346.06583 404.33242 333.12109 424.59375 C 324.02947 438.794 310.43398 451.91196 295.80078 460.52734 C 280.64809 469.5324 262.42179 475.5502 240.81836 478.75391 C 231.89992 480.096 207.785 480.4417 199.47266 479.35938 C 170.37946 475.59283 145.31309 466.06874 125.18164 451.17578 L 122.32422 449.05469 L 135.70312 423.94336 C 143.06301 410.13273 150.16214 396.84273 151.46094 394.375 L 153.8418 389.95898 L 155.01172 390.73828 C 161.15941 395.06761 174.23259 401.51698 182.80469 404.46094 C 193.41159 408.09758 202.07149 409.52758 212.5918 409.48438 C 219.9084 409.44108 222.50505 409.09404 230.16797 407.23242 C 238.95656 405.02446 243.45911 403.163 249.69336 399.13672 C 260.43013 392.20977 267.96462 383.03201 273.20312 370.43359 C 277.53246 360.04318 279.08987 351.12468 279.60938 333.7207 L 279.91211 324.36914 L 275.84375 328.26562 C 267.96434 335.84197 262.03273 340.12703 253.76367 344.2832 C 225.06011 358.69991 188.99713 358.22398 158.12891 342.94141 C 146.8726 337.35655 138.21366 331.03626 127.69336 320.73242 C 118.645 311.81397 112.84231 304.19444 106.26172 292.33203 C 97.776291 277.09274 92.495128 259.16824 90.546875 239.08008 C 89.940662 232.67264 90.287808 218.12649 91.240234 211.15625 C 94.357328 188.64366 103.66512 166.39093 117.5625 148.38086 C 124.9223 138.89959 138.21244 126.81988 148.16992 120.62891 C 161.28784 112.48975 177.99998 106.60187 193.88867 104.48047 C 196.22652 104.15577 200.08647 103.98354 204.30859 103.94727 z M 223.91797 174.5625 C 220.79543 174.51921 217.69918 174.65951 215.62109 175.00586 C 203.41233 176.99735 189.38624 185.13623 181.89648 194.57422 C 173.41096 205.22438 168.865 217.56435 168.9082 229.55664 C 168.9948 245.7484 176.35408 260.9429 189.03906 271.16016 C 195.79284 276.61513 204.75599 281.07489 212.54883 282.80664 C 217.39768 283.93228 226.92164 284.14941 232.16016 283.24023 C 253.89348 279.60358 271.73055 262.58942 276.92578 240.50977 C 280.34595 226.00647 277.09878 210.16058 268.09375 197.60547 C 263.33146 190.98159 255.19224 184.14186 247.5293 180.33203 C 243.97924 178.557 236.10018 175.91536 232.37695 175.22266 C 230.19063 174.83302 227.04051 174.60579 223.91797 174.5625 z "
     id="path2-3"
     transform="scale(0.74999998)"
     inkscape:label="gab-square" />
</svg>
