<?xml version="1.0" encoding="UTF-8" standalone="no"?>
<svg
   xmlns:dc="http://purl.org/dc/elements/1.1/"
   xmlns:cc="http://creativecommons.org/ns#"
   xmlns:rdf="http://www.w3.org/1999/02/22-rdf-syntax-ns#"
   xmlns:svg="http://www.w3.org/2000/svg"
   xmlns="http://www.w3.org/2000/svg"
   xmlns:sodipodi="http://sodipodi.sourceforge.net/DTD/sodipodi-0.dtd"
   xmlns:inkscape="http://www.inkscape.org/namespaces/inkscape"
   style="enable-background:new 0 0 512 512;"
   version="1.1"
   viewBox="0 0 512 512"
   xml:space="preserve"
   id="svg24"
   sodipodi:docname="gab-frog.svg"
   inkscape:version="1.0.1 (3bc2e813f5, 2020-09-07)"><metadata
     id="metadata30"><rdf:RDF><cc:Work
         rdf:about=""><dc:format>image/svg+xml</dc:format><dc:type
           rdf:resource="http://purl.org/dc/dcmitype/StillImage" /><dc:title /></cc:Work></rdf:RDF></metadata><defs
     id="defs28" /><sodipodi:namedview
     pagecolor="#ffffff"
     bordercolor="#666666"
     borderopacity="1"
     objecttolerance="10"
     gridtolerance="10"
     guidetolerance="10"
     inkscape:pageopacity="0"
     inkscape:pageshadow="2"
     inkscape:window-width="1366"
     inkscape:window-height="704"
     id="namedview26"
     showgrid="false"
     inkscape:zoom="0.53125"
     inkscape:cx="-91.891026"
     inkscape:cy="302.5638"
     inkscape:window-x="0"
     inkscape:window-y="27"
     inkscape:window-maximized="1"
     inkscape:current-layer="svg24"
     inkscape:document-rotation="0" /><style
     type="text/css"
     id="style2">
	.st0{fill:#1E1E1E;}
	.st1{fill:#464646;stroke:#21759B;stroke-width:2;stroke-miterlimit:10;}
	.st2{fill:#FFFFFF;}
</style><path
     id="path13"
     style="stroke-width:1.719;stroke:none;stroke-miterlimit:4;stroke-dasharray:none"
     d="M 101.19827,61.291116 C 77.340756,60.813289 53.402292,70.222892 34.312368,88.904475 6.8031232,115.89793 1.9896772,164.03709 24.684809,197.73592 c 6.01764,9.11244 4.986043,14.44506 -0.859664,22.5259 -30.2601758,41.95161 -31.6349665,92.67179 -4.469581,134.1076 18.052953,27.50925 43.152445,46.59245 72.037157,61.37866 51.579859,26.30573 107.114829,33.70019 164.024589,34.90372 20.9758,0.51579 41.95161,-1.72203 62.75548,-4.47296 52.61144,-6.87731 101.61229,-23.03765 143.5639,-57.08035 56.5659,-46.078 66.36808,-112.7886 24.41647,-171.76156 -4.47025,-6.36151 -4.12907,-11.00368 -0.17461,-17.19328 16.33362,-26.13378 18.74269,-54.15951 6.36353,-82.35649 C 465.17669,56.063284 385.91365,45.403448 342.41465,97.155221 c -2.40706,2.922859 -4.64219,6.362859 -8.59665,7.394449 -9.4563,2.40706 -14.95547,9.6296 -20.45732,16.85078 -4.81412,6.36151 -9.28504,13.2368 -14.44303,19.42638 -7.22117,8.76858 -15.64789,16.16304 -26.99546,19.42977 -23.039,6.53345 -43.67094,-0.51513 -59.31682,-19.94354 -8.25278,-10.31597 -13.41076,-24.24456 -24.93026,-30.43414 -12.5511,-6.70538 -20.45934,-17.191923 -30.25951,-26.13243 -2.92286,-2.578992 -5.84437,-5.159343 -8.93916,-7.39447 -14.66803,-9.778672 -30.95461,-14.73397 -47.27817,-15.060904 z m -2.239829,23.828808 c 35.246219,0.171933 64.819349,30.088916 64.303549,65.163216 -0.5158,35.07429 -30.60338,64.47549 -65.505739,64.30354 C 63.369684,214.24281 33.79724,184.15323 34.141105,149.59473 34.484971,113.66077 63.368343,84.947991 98.958441,85.119924 Z m 312.575209,3.267394 c 35.41816,0.171933 63.78573,28.370942 63.95767,63.961042 0.34386,36.27782 -27.85111,64.4748 -64.12893,64.4748 -36.62169,0 -64.30355,-27.68254 -64.30355,-64.13229 0,-36.1059 28.36892,-64.303552 64.47481,-64.303552 z m -157.15399,0.705199 c -6.90417,0.06981 -13.8332,0.412364 -20.79648,1.014129 -13.75462,1.20353 -27.51126,3.096149 -40.75009,7.394469 -2.06319,0.687732 -7.21983,0.858977 -2.92151,5.329225 10.4879,10.65984 20.63328,22.00809 31.46504,32.496 9.28438,9.11243 21.14707,13.06487 29.39984,13.40873 21.83547,0.17193 36.62102,-7.04858 49.17212,-21.66287 6.18958,-7.04924 11.51816,-14.78486 18.39547,-20.97444 6.70538,-6.01765 4.98873,-7.910942 -2.40438,-9.802203 -20.37404,-5.157985 -40.84747,-7.412574 -61.56001,-7.20304 z M 99.969211,116.58162 c -0.56311,-0.0138 -1.12965,-0.012 -1.69918,0.003 -18.56874,0.5158 -32.836465,15.30068 -32.492599,33.86942 0.343865,17.88102 15.299992,32.32472 33.181009,32.32472 17.881009,0 33.185059,-15.6452 33.013129,-33.69815 -0.33312,-17.82192 -14.54543,-32.09369 -32.002359,-32.49935 z m 311.906959,3.27076 c -18.91261,-0.17193 -33.18102,13.75463 -33.18102,32.66724 -0.17193,19.08454 13.58202,33.00974 32.8385,33.00974 18.91261,0 33.01043,-14.09713 32.8385,-33.00974 -0.34387,-18.56875 -14.09916,-32.49531 -32.49598,-32.66724 z M 302.50742,237.58269 c 2.98733,0.086 5.95318,2.79324 9.13393,8.12316 2.75093,4.64218 9.2837,9.62959 6.18891,15.13144 -2.92285,4.98606 -10.14537,1.03227 -15.13143,2.40773 -5.84571,-1.37546 -13.58269,2.74959 -16.33361,-3.09615 -2.40706,-5.15798 3.95445,-10.14267 6.87731,-14.95679 3.26672,-5.15799 6.27756,-7.69534 9.26489,-7.60939 z m -92.36016,0.0772 c 2.53959,0.22007 5.10359,2.46012 7.96197,6.67247 3.26672,4.98605 10.14471,10.14337 7.56571,15.64522 -2.92285,6.18958 -11.17764,1.7173 -16.67949,3.09276 -5.15799,-0.85966 -12.03463,2.23647 -14.78555,-2.06185 -3.26673,-4.98605 3.09613,-9.62688 5.67512,-14.09714 3.77178,-6.47971 6.99706,-9.53443 10.26224,-9.25146 z m -66.7012,93.30713 c 1.4893,-0.0839 3.28755,0.8563 4.6845,1.39359 24.24253,8.9405 49.51866,14.26908 75.13665,17.5358 45.90607,5.84572 90.436,-1.2015 134.27886,-15.12806 4.29832,-1.37546 11.17564,-6.18891 12.89497,-1.89059 1.71932,5.32992 -6.36018,7.04791 -10.6585,8.93915 -30.94791,14.27044 -63.27329,23.90002 -96.62825,29.74574 -2.92286,0.5158 -5.67245,0.5158 -8.93917,0.85966 -28.19698,-4.12639 -55.5343,-12.37916 -82.52775,-22.35126 -9.11244,-3.43866 -18.05429,-6.87732 -26.30706,-12.0353 -2.0632,-1.20353 -5.67447,-2.40909 -4.12707,-5.50388 0.5158,-1.09607 1.29923,-1.51447 2.19282,-1.56485 z" /></svg>
