<?xml version="1.0" encoding="UTF-8" standalone="no"?>
<svg
   xmlns:dc="http://purl.org/dc/elements/1.1/"
   xmlns:cc="http://creativecommons.org/ns#"
   xmlns:rdf="http://www.w3.org/1999/02/22-rdf-syntax-ns#"
   xmlns:svg="http://www.w3.org/2000/svg"
   xmlns="http://www.w3.org/2000/svg"
   xmlns:sodipodi="http://sodipodi.sourceforge.net/DTD/sodipodi-0.dtd"
   xmlns:inkscape="http://www.inkscape.org/namespaces/inkscape"
   version="1.0"
   width="512"
   height="512"
   viewBox="0 0 383.99999 383.99999"
   preserveAspectRatio="xMidYMid meet"
   id="svg6"
   sodipodi:docname="gab.svg"
   inkscape:version="0.92.2 5c3e80d, 2017-08-06"
   inkscape:label="gab">
  <metadata
     id="metadata12">
    <rdf:RDF>
      <cc:Work
         rdf:about="">
        <dc:format>image/svg+xml</dc:format>
        <dc:type
           rdf:resource="http://purl.org/dc/dcmitype/StillImage" />
        <dc:title></dc:title>
      </cc:Work>
    </rdf:RDF>
  </metadata>
  <defs
     id="defs10" />
  <sodipodi:namedview
     pagecolor="#ffffff"
     bordercolor="#666666"
     borderopacity="1"
     objecttolerance="10"
     gridtolerance="10"
     guidetolerance="10"
     inkscape:pageopacity="0"
     inkscape:pageshadow="2"
     inkscape:window-width="1920"
     inkscape:window-height="1044"
     id="namedview8"
     showgrid="false"
     units="px"
     inkscape:zoom="0.34570313"
     inkscape:cx="-297.87547"
     inkscape:cy="-143.17987"
     inkscape:window-x="1366"
     inkscape:window-y="0"
     inkscape:window-maximized="1"
     inkscape:current-layer="svg6" />
  <path
     style="opacity:1;fill-opacity:1;stroke:none;stroke-width:29.49244308;stroke-miterlimit:4;stroke-dasharray:none;stroke-opacity:1"
     d="M 191.99999,5.999991 A 186,186 0 0 0 6.000004,191.99998 186,186 0 0 0 153.8496,373.98631 c -15.82125,-4.03867 -29.81455,-10.49528 -41.67773,-19.27149 l -2.30859,-1.71386 10.80761,-20.28516 c 5.94555,-11.15664 11.68028,-21.89371 12.7295,-23.88721 l 1.92333,-3.56689 0.94483,0.62988 c 4.96628,3.49738 15.52832,8.70772 22.45313,11.08594 8.56857,2.9378 15.56289,4.09262 24.06152,4.05762 5.91057,-0.035 8.00983,-0.31547 14.20019,-1.81934 7.09968,-1.78366 10.73721,-3.28796 15.77344,-6.54053 8.6735,-5.5958 14.7584,-13.00964 18.99023,-23.187 3.49738,-8.39372 4.75707,-15.59778 5.17676,-29.65723 l 0.24463,-7.5542 -3.28858,3.14648 c -6.36523,6.12041 -11.15594,9.58295 -17.83594,12.94043 -23.18763,11.64627 -52.32099,11.26177 -77.25731,-1.08398 -9.09318,-4.51162 -16.08731,-9.61765 -24.58594,-17.94141 -7.30952,-7.2046 -11.99697,-13.35956 -17.312994,-22.94238 -6.85486,-12.31077 -11.12048,-26.79022 -12.69438,-43.01806 -0.4896,-5.17613 -0.2098,-16.92782 0.5596,-22.5586 2.5181,-18.18638 10.0371,-36.16232 21.263694,-50.71142 5.94555,-7.65926 16.68259,-17.416711 24.72656,-22.417971 10.59706,-6.57507 24.09626,-11.33218 36.93164,-13.0459 5.03623,-0.69947 18.81582,-0.52461 23.57226,0.27979 11.92606,2.02848 21.68375,5.56082 30.04248,10.94678 4.51162,2.93779 6.82096,4.75645 11.15772,8.98828 l 3.91699,3.81299 v -9.12891 -9.1626 h 31.8252 31.86181 l -0.14063,94.148441 c -0.10491,86.00054 -0.17412,94.64016 -0.69873,99.60643 -2.69298,24.48165 -8.60337,42.73725 -19.06054,59.10498 -7.34449,11.4714 -18.32681,22.06902 -30.14795,29.02881 -12.24083,7.27454 -26.96507,12.13508 -44.417,14.72315 -3.26233,0.49093 -9.05491,0.80744 -15.02636,0.93603 a 186,186 0 0 0 1.43994,0.0718 186,186 0 0 0 186,-186 186,186 0 0 0 -186,-185.999989 z M 190.56005,377.9282 a 186,186 0 0 1 -36.71045,-3.94189 c 5.86754,1.49779 11.97875,2.67343 18.33692,3.49658 3.67434,0.47843 11.15754,0.60071 18.37353,0.44531 z m 1.37402,-246.66942 c -2.52248,-0.035 -5.02292,0.0776 -6.70166,0.35742 -9.8626,1.6088 -21.19416,8.18431 -27.24462,15.80859 -6.85486,8.60356 -10.52768,18.57056 -10.49268,28.2583 0.07,13.08019 6.01538,25.35702 16.2627,33.61084 5.45591,4.4067 12.69642,8.00828 18.9917,9.40722 3.91705,0.90933 11.61046,1.08456 15.84228,0.3501 17.55685,-2.9378 31.96575,-16.68241 36.1626,-34.51904 2.76293,-11.71622 0.14076,-24.51726 -7.13379,-34.65966 -3.84712,-5.351 -10.42244,-10.87641 -16.6128,-13.95411 -2.86785,-1.43393 -9.23394,-3.56688 -12.2417,-4.12646 -1.76617,-0.31477 -4.30954,-0.49823 -6.83203,-0.5332 z"
     id="path818"
     inkscape:connector-curvature="0"
     inkscape:label="gab" />
</svg>
