<svg version="1" xmlns="http://www.w3.org/2000/svg" width="1133.333" height="1133.333" viewBox="0 0 850.000000 850.000000"><path d="M393 26.1C298 34.4 213.4 73 145.6 139c-71.5 69.6-114.3 163.1-120 262.5l-.5 9 1.8-11.5c1-6.3 2.6-14.8 3.5-18.8 17.4-75.7 78.4-135.3 154.5-150.7 57.1-11.6 115 1.7 162.1 37.3 4.1 3.2 12.5 10.6 18.6 16.7 38.7 38.3 59.3 89.2 59.4 146.2 0 5.1.7 14.5 1.5 21 7.3 55.5 36.7 104.4 82.5 137.3 72.4 51.8 171.9 49 241.3-6.9 38.3-30.9 63.6-74.3 72.5-124.1 2.4-13.5 2.3-56.9-.2-77-10.9-90.2-48.5-169.3-110.6-233.4C647.3 79.8 564.4 38.9 471 27.5c-15.9-2-62.4-2.8-78-1.4zm354.2 262.2c6.4 3.2 11.1 8 14.2 14.6 2.1 4.6 2.1 4.7 2.1 122.1v117.5l-2.8 5.7c-3.2 6.4-8 11.1-14.6 14.2-4.6 2.1-4.7 2.1-122.1 2.1-117.4 0-117.5 0-122.1-2.1-6.6-3.1-11.4-7.8-14.6-14.2l-2.8-5.7-.3-114.5c-.2-80.7 0-116 .8-119.6 2.2-10.1 9.3-18.1 19.3-21.6 4.9-1.6 11.9-1.7 121.2-1.5l116 .2 5.7 2.8z"/><path d="M608 335.6c-13.7 2.9-31.7 14.6-37.3 24.3-1.8 3-1.8 3.1 0 3.7 6.2 2 14.7 7.1 20 11.9 23.9 21.6 31.2 59.3 21.7 112-3.9 21.4-4 23.9-1.5 26.4 1.9 1.9 3.2 2.1 13.5 2.1 6.3 0 12.2-.3 13.1-.6 1-.4 2.3-2 2.9-3.6 1.1-2.4.9-4.7-1-13.9-5.7-27.8-7.3-58.8-4-76.4 3.7-19 12.1-35.3 23.7-45.8 5.1-4.7 14.4-10.2 20.2-12.1 2.6-.8.8-3.6-7.2-11.7-7.7-7.7-17.3-13-28.9-16-9-2.3-25.4-2.5-35.2-.3z"/><path d="M537.5 377.4c-.5.3-2.7.7-4.9 1.1-5.2.9-8.6 4.4-8.6 9 0 2.9 2.1 6.7 11.3 20.3 6.2 9.2 21.6 31.9 34.1 50.4 12.5 18.6 23.1 34 23.6 34.3 1.2.7 4.8-20.3 6-34.1 1.7-21.4-1.3-41.6-8.3-54.9-6.5-12.3-19.2-21.8-32.7-24.4-6.3-1.2-19-2.2-20.5-1.7zM697.7 378.1c-28.3 3.8-43.3 22.1-46.7 56.9-1.3 12.5-.2 29.3 3.1 46.8 1.8 9.3 2.4 11.1 3.4 10 1.3-1.2 12.8-18.2 51.8-76.1 17.2-25.4 18.3-27.8 15.6-32.9-2.3-4.4-14.4-6.5-27.2-4.7zM201.5 332c-14.7 3.9-24.7 10-35.8 22-7.3 7.9-15.4 22.8-18.2 33.5-2.5 9.8-3 23.6-1.1 34.4 3.2 18.3 10.6 32.2 24 44.8 9.2 8.7 17.8 13.8 29.6 17.4 10.4 3.3 27.4 3.3 37.5.2 7.8-2.5 17.3-7.8 22.2-12.5 1.8-1.8 3.5-3 3.7-2.7 1 1-1.5 20.1-3.2 25.2-4.8 13.5-14.1 21.8-28.4 25.2-12 2.8-23 1.1-37.8-6.1-5.2-2.5-9.6-4.2-9.8-3.7-.1.4-4.5 8.7-9.7 18.3l-9.4 17.5 2.2 1.7c15.5 12 38.5 18.4 62.2 17.5 41.9-1.6 68.9-22.6 79.3-61.7 2.4-9.2 2.5-10.8 3.3-54.5.4-24.8.8-60.4.8-79.3l.1-34.2h-50v13.2l-4.7-4.2c-6-5.3-16.4-10.6-24.5-12.5-8.7-2-23.7-1.8-32.3.5zm35.6 43.6c25.8 7.5 33.8 37.7 15 56.5-7 7-14.1 9.9-24 9.9-5.8 0-7.9-.5-13.9-3.5-28.6-14.3-24.7-53.3 6.3-63.1 5.5-1.7 10.2-1.7 16.6.2z"/></svg>