<?xml version="1.0" encoding="UTF-8" standalone="no"?>
<!-- Created with Inkscape (http://www.inkscape.org/) -->

<svg
   xmlns:dc="http://purl.org/dc/elements/1.1/"
   xmlns:cc="http://creativecommons.org/ns#"
   xmlns:rdf="http://www.w3.org/1999/02/22-rdf-syntax-ns#"
   xmlns:svg="http://www.w3.org/2000/svg"
   xmlns="http://www.w3.org/2000/svg"
   xmlns:sodipodi="http://sodipodi.sourceforge.net/DTD/sodipodi-0.dtd"
   xmlns:inkscape="http://www.inkscape.org/namespaces/inkscape"
   width="850"
   height="850"
   id="svg2"
   sodipodi:version="0.32"
   inkscape:version="0.92.2 5c3e80d, 2017-08-06"
   version="1.0"
   sodipodi:docname="logo.svg"
   inkscape:output_extension="org.inkscape.output.svg.inkscape"
   inkscape:export-filename="logo.png"
   inkscape:export-xdpi="96"
   inkscape:export-ydpi="96">
  <defs
     id="defs4">
    <inkscape:perspective
       sodipodi:type="inkscape:persp3d"
       inkscape:vp_x="0 : 425 : 1"
       inkscape:vp_y="0 : 1000 : 0"
       inkscape:vp_z="850 : 425 : 1"
       inkscape:persp3d-origin="425 : 283.33333 : 1"
       id="perspective2894" />
    <filter
       inkscape:collect="always"
       id="filter3073">
      <feGaussianBlur
         inkscape:collect="always"
         stdDeviation="12.375"
         id="feGaussianBlur3075" />
    </filter>
  </defs>
  <sodipodi:namedview
     id="base"
     pagecolor="#ffffff"
     bordercolor="#666666"
     borderopacity="1.0"
     gridtolerance="10000"
     guidetolerance="10"
     objecttolerance="10"
     inkscape:pageopacity="0.0"
     inkscape:pageshadow="2"
     inkscape:zoom="0.31528643"
     inkscape:cx="-873.85005"
     inkscape:cy="459.03626"
     inkscape:document-units="px"
     inkscape:current-layer="layer2"
     width="850px"
     height="850px"
     showgrid="false"
     inkscape:grid-points="true"
     inkscape:object-points="true"
     inkscape:window-width="1920"
     inkscape:window-height="1044"
     inkscape:window-x="1366"
     inkscape:window-y="0"
     inkscape:window-maximized="1">
    <inkscape:grid
       type="xygrid"
       id="grid2333"
       originx="0"
       originy="0"
       spacingx="1"
       spacingy="1"
       empspacing="4" />
    <inkscape:grid
       id="GridFromPre046Settings"
       type="xygrid"
       originx="0"
       originy="25"
       spacingx="25"
       spacingy="25"
       color="#0000ff"
       empcolor="#0000ff"
       opacity="0.2"
       empopacity="0.4"
       empspacing="4" />
  </sodipodi:namedview>
  <metadata
     id="metadata7">
    <rdf:RDF>
      <cc:Work
         rdf:about="">
        <dc:format>image/svg+xml</dc:format>
        <dc:type
           rdf:resource="http://purl.org/dc/dcmitype/StillImage" />
        <dc:title />
        <dc:date>11/December/2007</dc:date>
        <dc:creator>
          <cc:Agent>
            <dc:title>Wikimedia Commons User:Klem</dc:title>
          </cc:Agent>
        </dc:creator>
        <dc:rights>
          <cc:Agent>
            <dc:title>Wikimedia Commons User:Klem</dc:title>
          </cc:Agent>
        </dc:rights>
        <dc:publisher>
          <cc:Agent>
            <dc:title>Wikimedia Commons User:Klem</dc:title>
          </cc:Agent>
        </dc:publisher>
        <dc:subject>
          <rdf:Bag>
            <rdf:li>Yin and Yang</rdf:li>
            <rdf:li>Yin &amp; Yang</rdf:li>
            <rdf:li>Yin</rdf:li>
            <rdf:li>Ying</rdf:li>
            <rdf:li>Yang</rdf:li>
            <rdf:li>yinyang</rdf:li>
            <rdf:li>yingyang</rdf:li>
            <rdf:li>Tiandi Zhiran Hetu</rdf:li>
            <rdf:li>Heaven and Earth’s Natural Diagram of the River</rdf:li>
            <rdf:li>Taijitu</rdf:li>
            <rdf:li>Diagram of the Great Ultimate.</rdf:li>
          </rdf:Bag>
        </dc:subject>
        <dc:contributor>
          <cc:Agent>
            <dc:title>Liu Mu (1011-1064 AD) - Hetu (Diagram of River) and Luoshu (Chart of Luo); 
Shao Yong (1011-1077 AD) - Xiantian tu (Diagram of Preceding Heaven); 
Zhou Dunyi (1017-1073 AD) - Taijitu (Diagram of the Great Ultimate); 
Zhao Huiqian (1351-1395 AD) - Tiandi Zhiran Hetu (Heaven and Earth’s Natural Diagram of the River); 
Wikimedia Commons user Klem</dc:title>
          </cc:Agent>
        </dc:contributor>
        <dc:description>A graphical depiction of Yin and Yang in its conventional orientation - the hot, bright, white yang nature rises while the cold, dark, black yin nature descends.
The symbol is shown over a feather edged grey background for clarity when displayed on black or white.
This representation of the traditional Chinese diagram was created from scratch in Inkscape by Wikicommons user &quot;Klem&quot;.</dc:description>
        <cc:license
           rdf:resource="http://creativecommons.org/licenses/by/4.0/" />
        <dc:relation />
      </cc:Work>
      <cc:License
         rdf:about="http://creativecommons.org/licenses/by/4.0/">
        <cc:permits
           rdf:resource="http://creativecommons.org/ns#Reproduction" />
        <cc:permits
           rdf:resource="http://creativecommons.org/ns#Distribution" />
        <cc:requires
           rdf:resource="http://creativecommons.org/ns#Notice" />
        <cc:requires
           rdf:resource="http://creativecommons.org/ns#Attribution" />
        <cc:permits
           rdf:resource="http://creativecommons.org/ns#DerivativeWorks" />
      </cc:License>
    </rdf:RDF>
  </metadata>
  <g
     inkscape:label="Background"
     inkscape:groupmode="layer"
     id="layer1"
     style="display:inline">
    <circle
       style="opacity:0.5;fill:#7f7f7f;fill-opacity:1;stroke:#7f7f7f;stroke-width:25;stroke-linecap:butt;stroke-miterlimit:4;stroke-dasharray:none;stroke-opacity:1;filter:url(#filter3073)"
       id="pathShadowGlow"
       inkscape:label="#Background Shadow/Glow - NOT part of the diagram but necessary for clarity on black or white backgrounds"
       transform="translate(25,25)"
       cx="400"
       cy="400"
       r="400" />
  </g>
  <g
     inkscape:groupmode="layer"
     id="layer2"
     inkscape:label="Yin and Yang Symbol">
    <g
       id="g884"
       inkscape:export-filename="logo.png"
       inkscape:export-xdpi="96"
       inkscape:export-ydpi="96">
      <g
         transform="rotate(90,400,425)"
         style="fill:#00e47f;fill-opacity:1"
         inkscape:label="#Yin"
         id="gYin">
        <path
           style="fill:#00e47f;fill-opacity:1;stroke:none"
           d="M 425,25 C 204.2,25 25,204.2 25,425 25,645.8 204.2,825 425,825 314.6,825 225,735.4 225,625 225,514.6 314.6,425 425,425 535.4,425 625,335.4 625,225 625,114.6 535.4,25 425,25 Z m 0,137.5 c 34.5,0 62.5,28 62.5,62.5 0,34.5 -28,62.5 -62.5,62.5 -34.5,0 -62.5,-28 -62.5,-62.5 0,-34.5 28,-62.5 62.5,-62.5 z"
           transform="rotate(180,412.5,412.5)"
           id="pathYinBG"
           inkscape:connector-curvature="0" />
        <circle
           transform="matrix(1.25,0,0,1.25,-100,-50)"
           style="fill:#00e47f;fill-opacity:1;stroke:none"
           id="pathYinS"
           inkscape:label="#Yin Spot"
           cx="400"
           cy="200"
           r="50" />
      </g>
      <g
         style="fill:#8b2d5d;fill-opacity:1"
         transform="rotate(-90,425,425)"
         inkscape:label="#Yang"
         id="gYang">
        <path
           id="pathYangBG"
           d="m 425,25 c 110.4,0 200,89.6 200,200 0,110.4 -89.6,200 -200,200 -110.4,0 -200,89.6 -200,200 0,110.4 89.6,200 200,200 C 645.8,825 825,645.8 825,425 825,204.2 645.8,25 425,25 Z m 0,537.5 c 34.5,0 62.5,28 62.5,62.5 0,34.5 -28,62.5 -62.5,62.5 -34.5,0 -62.5,-28 -62.5,-62.5 0,-34.5 28,-62.5 62.5,-62.5 z"
           style="fill:#8b2d5d;fill-opacity:1;stroke:none"
           inkscape:connector-curvature="0" />
        <circle
           inkscape:label="#Yang Spot"
           transform="matrix(1.25,0,0,-1.25,-75,475)"
           id="pathYangS"
           style="fill:#8b2d5d;fill-opacity:1;stroke:none"
           cx="400"
           cy="200"
           r="50" />
      </g>
    </g>
    <g
       id="g876"
       transform="matrix(0.62499994,0,0,0.62499994,1321.0094,636.91948)"
       inkscape:export-filename="logo.png"
       inkscape:export-xdpi="96"
       inkscape:export-ydpi="96">
      <rect
         style="opacity:1;fill:#000000;fill-opacity:1;stroke:none;stroke-width:17.69261551;stroke-miterlimit:4;stroke-dasharray:none;stroke-opacity:1"
         id="rect868"
         width="343.13986"
         height="430.60687"
         x="-1286.7296"
         y="-554.37463" />
      <path
         inkscape:connector-curvature="0"
         style="fill:#e5e5e5;fill-opacity:1;stroke-width:1"
         d="m -1291.1597,-563.0712 a 48.000001,48.000001 0 0 0 -48,48 v 352 a 48.000001,48.000001 0 0 0 48,48 h 50.168 87.082 77.5 88.52544 48.7246 a 48.000001,48.000001 0 0 0 48,-48 v -352 a 48.000001,48.000001 0 0 0 -48,-48 h -48.7246 -253.10744 z m 176.9258,78.13867 c 26.1646,-0.19003 52.2898,7.76876 70.9961,23.93164 8.0384,6.74187 14.456,14.39216 19.0586,22.625 -54.1943,16.66027 -76.9479,75.13183 -76.17,129.00196 -0.3889,29.43096 3.8244,63.33574 12.6407,101.77734 1.6854,7.39009 -3.9545,14.39062 -11.5391,14.39062 h -28.7187 c -7.5846,0 -13.2226,-7.00053 -11.5372,-14.39062 8.8164,-38.4416 13.0296,-72.41122 12.6407,-101.77734 0.7779,-53.93495 -21.9756,-112.34169 -76.17,-129.00196 17.0148,-30.73143 52.9437,-46.29623 88.7989,-46.55664 z m -131.2422,69.86133 c 4.7691,0.0672 10.224,0.48539 16.4473,1.32812 78.5039,9.52941 81.3555,98.85885 69.1035,162.8418 -1.2317,6.93638 -2.5923,14.13333 -4.2129,21.52344 -0.2593,-0.12987 -108.1935,-160.44417 -108.5176,-160.63867 -5.9559,-8.79199 -6.2042,-25.52531 27.1797,-25.05469 z m 263.67584,0 c 33.3838,-0.47062 33.1355,16.2627 27.1797,25.05469 -0.3242,0.25933 -108.19544,160.57294 -108.51964,160.63867 -1.6206,-7.39011 -2.9812,-14.58706 -4.2129,-21.52344 -12.252,-63.98295 -9.4004,-153.31239 69.10364,-162.8418 6.2232,-0.84273 11.68,-1.26089 16.4492,-1.32812 z"
         id="path2-3-7"
         inkscape:label="parler-square" />
    </g>
    <g
       id="g872"
       transform="matrix(0.625,0,0,0.625,551.95813,649.27441)"
       inkscape:export-filename="logo.png"
       inkscape:export-xdpi="96"
       inkscape:export-ydpi="96">
      <rect
         y="-566.01868"
         x="-690.70978"
         height="430.60687"
         width="343.13986"
         id="rect866"
         style="opacity:1;fill:#000000;fill-opacity:1;stroke:none;stroke-width:17.69261551;stroke-miterlimit:4;stroke-dasharray:none;stroke-opacity:1" />
      <path
         inkscape:connector-curvature="0"
         style="fill:#e5e5e5;fill-opacity:1;stroke-width:1"
         d="m -692.95251,-582.83925 a 48,48 0 0 0 -48,48 v 352 a 48,48 0 0 0 48,48 h 50.16797 87.08203 77.5 88.52539 48.72461 a 48,48 0 0 0 48,-48 v -352 a 48,48 0 0 0 -48,-48 h -48.72461 -253.10742 z m 156.30859,71.94727 c 7.03688,-0.0605 15.07982,0.25851 18.75977,0.88085 14.76307,2.51106 26.84231,6.88361 37.18945,13.55079 5.58486,3.63666 8.44216,5.88649 13.81055,11.12499 l 4.84961,4.7207 v -11.30078 -11.34179 h 39.39648 39.43946 l -0.17188,116.54491 c -0.12988,106.45859 -0.21779,117.15312 -0.86719,123.30078 -3.33358,30.30543 -10.64901,52.90469 -23.59375,73.16603 -9.09162,14.20025 -22.68711,27.31821 -37.32031,35.93359 -15.15269,9.00506 -33.37899,15.02286 -54.98242,18.22657 -8.91844,1.34209 -33.03336,1.68779 -41.3457,0.60547 -29.0932,-3.76655 -54.15957,-13.29064 -74.29102,-28.1836 l -2.85742,-2.12109 13.3789,-25.11133 c 7.35989,-13.81063 14.45902,-27.10064 15.75782,-29.56837 l 2.38086,-4.41602 1.16992,0.7793 c 6.14769,4.32933 19.22087,10.7787 27.79297,13.72266 10.6069,3.63665 19.2668,5.06665 29.78711,5.02345 7.3166,-0.0433 9.91325,-0.39034 17.57617,-2.25196 8.78859,-2.20797 13.29114,-4.06943 19.52539,-8.09571 10.73677,-6.92695 18.27126,-16.10471 23.50976,-28.70313 4.32934,-10.39041 5.88675,-19.30891 6.40626,-36.71289 l 0.30273,-9.35156 -4.06836,3.89648 c -7.87941,7.57635 -13.81102,11.86141 -22.08008,16.01758 -28.70356,14.41671 -64.76654,13.94078 -95.63476,-1.34179 -11.25631,-5.58486 -19.91525,-11.90515 -30.43555,-22.20899 -9.04836,-8.91845 -14.85105,-16.53798 -21.43164,-28.40039 -8.48542,-15.23929 -13.76659,-33.16379 -15.71484,-53.25195 -0.60621,-6.40744 -0.25907,-20.95359 0.69336,-27.92383 3.11709,-22.51259 12.42488,-44.76532 26.32226,-62.77539 7.3598,-9.48127 20.64994,-21.56098 30.60742,-27.75194 13.11792,-8.13916 29.83006,-14.02704 45.71875,-16.14844 2.33785,-0.3247 6.1978,-0.49693 10.41992,-0.5332 z m 19.60938,70.61522 c -3.12254,-0.0433 -6.21879,0.097 -8.29688,0.44336 -12.20876,1.99149 -26.23485,10.13037 -33.72461,19.56836 -8.48552,10.65016 -13.03148,22.99013 -12.98828,34.98242 0.0866,16.19176 7.44588,31.38626 20.13086,41.60352 6.75378,5.45497 15.71693,9.91473 23.50977,11.64648 4.84885,1.12564 14.37281,1.34277 19.61133,0.43359 21.73332,-3.63665 39.57039,-20.65081 44.76562,-42.73046 3.42017,-14.5033 0.173,-30.34919 -8.83203,-42.9043 -4.76229,-6.62388 -12.90151,-13.46361 -20.56445,-17.27344 -3.55006,-1.77503 -11.42912,-4.41667 -15.15235,-5.10937 -2.18632,-0.38964 -5.33644,-0.61687 -8.45898,-0.66016 z"
         id="path2-3"
         inkscape:label="gab-square" />
    </g>
  </g>
</svg>
