<?xml version="1.0" encoding="UTF-8" standalone="no"?>
<svg
   xmlns:dc="http://purl.org/dc/elements/1.1/"
   xmlns:cc="http://creativecommons.org/ns#"
   xmlns:rdf="http://www.w3.org/1999/02/22-rdf-syntax-ns#"
   xmlns:svg="http://www.w3.org/2000/svg"
   xmlns="http://www.w3.org/2000/svg"
   xmlns:sodipodi="http://sodipodi.sourceforge.net/DTD/sodipodi-0.dtd"
   xmlns:inkscape="http://www.inkscape.org/namespaces/inkscape"
   enable-background="new 0 0 64 64"
   id="Layer_1"
   version="1.1"
   viewBox="0 0 64 64"
   xml:space="preserve"
   sodipodi:docname="iconfinder_coffee-03_3535179.svg.2020_04_24_09_31_50.0.svg"
   inkscape:version="0.92.2 5c3e80d, 2017-08-06"><metadata
     id="metadata39"><rdf:RDF><cc:Work
         rdf:about=""><dc:format>image/svg+xml</dc:format><dc:type
           rdf:resource="http://purl.org/dc/dcmitype/StillImage" /></cc:Work></rdf:RDF></metadata><defs
     id="defs37" /><sodipodi:namedview
     pagecolor="#ffffff"
     bordercolor="#666666"
     borderopacity="1"
     objecttolerance="10"
     gridtolerance="10"
     guidetolerance="10"
     inkscape:pageopacity="0"
     inkscape:pageshadow="2"
     inkscape:window-width="1880"
     inkscape:window-height="1016"
     id="namedview35"
     showgrid="false"
     inkscape:zoom="3.6875"
     inkscape:cx="-36.497947"
     inkscape:cy="31.371447"
     inkscape:window-x="1406"
     inkscape:window-y="28"
     inkscape:window-maximized="1"
     inkscape:current-layer="Layer_1" /><g
     id="g4"
     inkscape:export-xdpi="102.4"
     inkscape:export-ydpi="102.4"><circle
       style="fill:#dceec8;fill-opacity:1"
       id="circle2"
       r="30"
       cy="32"
       cx="32" /></g><g
     id="g30"
     transform="matrix(1.2800126,0,0,1.2800126,-9.8548912,-9.7116161)"><g
       id="g8"><path
         style="fill:#7c5039"
         inkscape:connector-curvature="0"
         id="path6"
         d="M 48,22.3 H 19 c -0.1,0.8 -0.1,1.7 -0.1,2.5 0,0.3 0,0.6 0,0.9 -1,-0.2 -2.3,-0.4 -3.5,0.3 -1.2,0.6 -1.9,1.9 -2.1,3.7 v 0.1 c 0,0.1 0,3.3 2.4,5.7 1.6,1.5 3.8,2.3 6.6,2.3 0.2,0 0.3,0 0.5,0 1.3,1.9 2.9,3.4 4.6,4.4 V 44 h 12.4 v -1.8 c 5,-3.1 8.5,-9.7 8.5,-17.4 C 48.1,24 48,23.1 48,22.3 Z M 17,34.1 c -1.6,-1.6 -1.8,-3.8 -1.8,-4.2 0.1,-1.1 0.5,-1.8 1,-2.1 0.8,-0.4 2,-0.2 2.7,0.1 0.4,2.9 1.2,5.5 2.4,7.8 -1.8,0 -3.2,-0.6 -4.3,-1.6 z" /></g><g
       id="g12"><path
         style="fill:#f9f9f9"
         inkscape:connector-curvature="0"
         id="path10"
         d="m 18.1,45.3 c 0,-0.7 0.5,-1.2 1.2,-1.2 h 28.2 c 0.7,0 1.2,0.5 1.2,1.2 v 0 c 0,0.7 -0.5,1.2 -1.2,1.2 H 19.4 c -0.7,0 -1.3,-0.5 -1.3,-1.2 z" /></g><g
       style="opacity:0.25"
       id="g16"><path
         style="fill:#e8e7e7"
         inkscape:connector-curvature="0"
         id="path14"
         d="m 48,24.8 c 0,-0.9 0,-1.7 -0.1,-2.5 h -29 l 20.7,20 c 5,-3.1 8.4,-9.7 8.4,-17.5 z" /></g><g
       id="g20"><polygon
         style="fill:#5b3625"
         id="polygon18"
         points="39.6,42.3 27.3,44.1 27.3,42.3 " /></g><g
       id="g24"><path
         style="fill:#c6c5c5"
         inkscape:connector-curvature="0"
         id="path22"
         d="m 19.4,46.5 h 28.2 c 0.7,0 1.2,-0.5 1.2,-1.2 H 18.1 c 0,0.7 0.6,1.2 1.3,1.2 z" /></g><g
       id="g28"><path
         style="fill:#ffffff"
         inkscape:connector-curvature="0"
         id="path26"
         d="m 18.9,22.3 c 0,0 0.5,-2.3 5,-2 0,0 3.5,1.3 6.8,0.1 3.3,-1.2 6.5,-1.8 8.9,-0.5 0,0 2.4,0.7 3.9,-0.2 1.5,-0.9 1.6,-2 1.6,-2 0,0 0,1.8 1,2.7 1,0.9 1.5,0.5 1.8,2 h -29 z" /></g></g></svg>